<svg width="103" height="146" viewBox="0 0 103 146" fill="none" xmlns="http://www.w3.org/2000/svg">
<path opacity="0.05" d="M102.744 146H2.784V119.48L50.112 69.5C55.28 63.924 58.816 59.64 60.72 56.648C62.76 53.52 63.78 50.46 63.78 47.468C63.78 43.796 62.624 40.94 60.312 38.9C58.136 36.724 55.076 35.636 51.132 35.636C42.564 35.636 36.172 40.6 31.956 50.528L0.54 32.984C5.028 22.512 11.692 14.42 20.532 8.70799C29.508 2.99599 39.572 0.139993 50.724 0.139993C64.324 0.139993 75.952 4.21999 85.608 12.38C95.4 20.404 100.296 31.42 100.296 45.428C100.296 53.316 98.46 60.796 94.788 67.868C91.116 74.804 85.336 82.352 77.448 90.512L58.068 110.708H102.744V146Z" fill="black"/>
</svg>
