<svg width="104" height="147" viewBox="0 0 104 147" fill="none" xmlns="http://www.w3.org/2000/svg">
<path opacity="0.05" d="M97.46 28.964L73.592 58.34C82.84 61.196 90.184 66.16 95.624 73.232C101.2 80.168 103.988 88.464 103.988 98.12C103.988 113.352 98.956 125.184 88.892 133.616C78.964 141.912 66.52 146.06 51.56 146.06C39.456 146.06 28.848 143.34 19.736 137.9C10.624 132.324 4.096 124.3 0.152 113.828L31.976 95.672C34.968 105.6 41.496 110.564 51.56 110.564C56.728 110.564 60.672 109.34 63.392 106.892C66.248 104.444 67.676 101.18 67.676 97.1C67.676 93.02 66.248 89.824 63.392 87.512C60.672 85.064 56.728 83.84 51.56 83.84H43.808L29.732 63.032L52.58 35.084H4.64V0.19999H97.46V28.964Z" fill="black"/>
</svg>
