<svg width="18" height="20" viewBox="0 0 18 20" fill="none" xmlns="http://www.w3.org/2000/svg">
<path d="M1 7C1 4.172 1 2.757 1.879 1.879C2.757 1 4.172 1 7 1H11C13.828 1 15.243 1 16.121 1.879C17 2.757 17 4.172 17 7V13.828C17 16.511 17 17.852 16.156 18.263C15.311 18.673 14.256 17.844 12.146 16.187L11.471 15.656C10.285 14.724 9.691 14.258 9 14.258C8.308 14.258 7.715 14.724 6.529 15.656L5.853 16.186C3.743 17.844 2.689 18.673 1.844 18.263C1 17.853 1 16.51 1 13.828V7Z" stroke="#2029F4" stroke-width="2"/>
</svg>
