<svg width="120" height="111" viewBox="0 0 120 111" fill="none" xmlns="http://www.w3.org/2000/svg">
<ellipse cx="60" cy="55.5" rx="60" ry="55.5" fill="#C1C4FF"/>
<path d="M51.5672 69.9507V51.4947C51.5672 50.6488 51.9013 49.9313 52.5695 49.3422C53.2378 48.7506 54.0439 48.4548 54.9878 48.4548H75.592C76.5346 48.4548 77.3386 48.7519 78.004 49.346C78.668 49.9401 79 50.6595 79 51.5041V64.649L69.6665 73H54.9752C54.0326 73 53.2286 72.7029 52.5632 72.1088C51.8992 71.5147 51.5672 70.7953 51.5672 69.9507ZM41.0688 45.804C40.886 44.9594 41.0674 44.1991 41.6133 43.5232C42.1591 42.846 42.9047 42.4249 43.8501 42.26L64.1483 39.0616C65.0909 38.898 65.9406 39.0603 66.6974 39.5487C67.4543 40.0371 67.9242 40.7042 68.1071 41.5501L68.5544 43.9517H54.9752C52.6539 43.9517 50.6668 44.6913 49.0138 46.1703C47.3608 47.6493 46.5343 49.4272 46.5343 51.5041V66.1953C46.0532 65.9851 45.6445 65.6862 45.3083 65.2985C44.9706 64.9108 44.7491 64.4665 44.6436 63.9655L41.0688 45.804ZM76.8898 63.5596H68.4489V71.1119L76.8898 63.5596Z" fill="#2657A4"/>
</svg>
