<svg width="120" height="111" viewBox="0 0 120 111" fill="none" xmlns="http://www.w3.org/2000/svg">
<ellipse cx="60" cy="55.5" rx="60" ry="55.5" fill="#D8FFCA"/>
<path fill-rule="evenodd" clip-rule="evenodd" d="M73.5009 57.343L72.4709 60.966C71.2678 65.1947 70.6673 67.31 69.3052 68.6809C68.2304 69.7632 66.8395 70.5208 65.3083 70.8581C65.1154 70.9012 64.9206 70.9331 64.7217 70.9556C62.9022 71.1675 60.6811 70.6068 56.6404 69.5866C52.1564 68.4521 49.9134 67.8857 48.4598 66.6012C47.3117 65.5871 46.5083 64.2747 46.1511 62.83C45.6977 60.9998 46.2983 58.8863 47.5013 54.6576L48.5294 51.0346L49.0145 49.3374C49.9193 46.2132 50.5278 44.4936 51.695 43.3178C52.7701 42.2362 54.161 41.4792 55.6919 41.1425C57.6327 40.7149 59.8757 41.2813 64.3618 42.4158C68.8439 43.5485 71.0869 44.1148 72.5405 45.3975C73.6888 46.4121 74.4923 47.7252 74.8491 49.1705C75.3025 51.0008 74.702 53.1142 73.5009 57.343ZM54.0554 55.6365C54.1061 55.458 54.1937 55.2908 54.313 55.1443C54.4323 54.9977 54.5811 54.8748 54.7508 54.7825C54.9205 54.6902 55.1078 54.6303 55.302 54.6063C55.4963 54.5823 55.6936 54.5946 55.8828 54.6426L65.4873 57.0711C65.6815 57.1145 65.8644 57.1942 66.0253 57.3055C66.1863 57.4169 66.3218 57.5575 66.4241 57.7192C66.5263 57.8808 66.5931 58.0601 66.6204 58.2466C66.6478 58.433 66.6353 58.6227 66.5835 58.8045C66.5317 58.9862 66.4418 59.1563 66.319 59.3047C66.1963 59.4531 66.0432 59.5767 65.8688 59.6683C65.6944 59.7599 65.5024 59.8175 65.304 59.8378C65.1056 59.8581 64.9049 59.8406 64.7137 59.7865L55.1093 57.3599C54.7276 57.2632 54.4022 57.0275 54.2046 56.7048C54.007 56.382 53.9533 55.9966 54.0554 55.6365ZM52.5123 61.0729C52.6148 60.7129 52.8647 60.4061 53.207 60.2197C53.5492 60.0334 53.9559 59.9827 54.3378 60.079L60.1004 61.5361C60.2955 61.5785 60.4796 61.6576 60.6416 61.7686C60.8036 61.8796 60.9402 62.0202 61.0434 62.1821C61.1465 62.344 61.214 62.5237 61.2419 62.7107C61.2698 62.8978 61.2574 63.0881 61.2056 63.2705C61.1538 63.4529 61.0635 63.6236 60.9402 63.7724C60.817 63.9212 60.6632 64.0451 60.488 64.1366C60.3129 64.2282 60.12 64.2855 59.9208 64.3053C59.7217 64.325 59.5204 64.3067 59.3289 64.2515L53.5662 62.7963C53.377 62.7484 53.1997 62.6658 53.0443 62.5533C52.8889 62.4408 52.7586 62.3005 52.6607 62.1405C52.5628 61.9804 52.4993 61.8038 52.4739 61.6206C52.4484 61.4374 52.4615 61.2513 52.5123 61.0729Z" fill="#00C969"/>
<path opacity="0.5" d="M64 70.4989C63.5937 71.6922 62.8802 72.7678 61.9256 73.6259C60.5057 74.9031 58.3147 75.4662 53.9347 76.5925C49.5547 77.7187 47.3637 78.2837 45.4699 77.8585C43.9735 77.5236 42.6142 76.7702 41.5638 75.6937C40.2333 74.3307 39.6448 72.2274 38.4716 68.0227L37.4674 64.4203C36.2922 60.2156 35.7057 58.1123 36.1466 56.2943C36.496 54.8577 37.2815 53.5527 38.4036 52.5446C39.8235 51.2674 42.0144 50.7043 46.3945 49.5762C47.2219 49.3636 47.9736 49.1697 48.6573 49L48.1834 50.6893L47.1792 54.2918C46.004 58.4964 45.4174 60.5979 45.8584 62.4177C46.2078 63.8544 46.9933 65.1593 48.1154 66.1674C49.5352 67.4447 51.7262 68.0078 56.1063 69.1359C60.0531 70.1502 62.2227 70.7096 64 70.4989Z" fill="white"/>
</svg>
