<svg width="19" height="18" viewBox="0 0 19 18" fill="none" xmlns="http://www.w3.org/2000/svg">
<g clip-path="url(#clip0_175_19547)">
<mask id="mask0_175_19547" style="mask-type:luminance" maskUnits="userSpaceOnUse" x="0" y="0" width="19" height="18">
<path d="M0 0H19V18H0V0Z" fill="white"/>
</mask>
<g mask="url(#mask0_175_19547)">
<path fill-rule="evenodd" clip-rule="evenodd" d="M9.5 0C4.25125 0 0 4.0275 0 9C0 12.9825 2.71938 16.3462 6.49563 17.5387C6.97062 17.6175 7.14875 17.3475 7.14875 17.1112C7.14875 16.8975 7.13688 16.1887 7.13688 15.435C4.75 15.8512 4.1325 14.8837 3.9425 14.3775C3.83563 14.1187 3.3725 13.32 2.96875 13.1062C2.63625 12.9375 2.16125 12.5212 2.95688 12.51C3.705 12.4987 4.23938 13.1625 4.4175 13.4325C5.2725 14.7937 6.63812 14.4112 7.18437 14.175C7.2675 13.59 7.51688 13.1962 7.79 12.9712C5.67625 12.7462 3.4675 11.97 3.4675 8.5275C3.4675 7.54875 3.83563 6.73875 4.44125 6.10875C4.34625 5.88375 4.01375 4.96125 4.53625 3.72375C4.53625 3.72375 5.33187 3.4875 7.14875 4.64625C7.90875 4.44375 8.71625 4.3425 9.52375 4.3425C10.3313 4.3425 11.1388 4.44375 11.8988 4.64625C13.7156 3.47625 14.5113 3.72375 14.5113 3.72375C15.0338 4.96125 14.7013 5.88375 14.6063 6.10875C15.2119 6.73875 15.58 7.5375 15.58 8.5275C15.58 11.9812 13.3594 12.7462 11.2456 12.9712C11.59 13.2525 11.8869 13.7925 11.8869 14.6362C11.8869 15.84 11.875 16.8075 11.875 17.1112C11.875 17.3475 12.0531 17.6287 12.5281 17.5387C14.414 16.9355 16.0528 15.7873 17.2137 14.2555C18.3747 12.7238 18.9994 10.8857 19 9C19 4.0275 14.7488 0 9.5 0Z" fill="#4042AF"/>
</g>
</g>
<defs>
<clipPath id="clip0_175_19547">
<rect width="19" height="18" fill="white"/>
</clipPath>
</defs>
</svg>
