<svg width="32" height="32" viewBox="0 0 32 32" fill="none" xmlns="http://www.w3.org/2000/svg">
<rect width="32" height="32" rx="16" fill="#E8FAFF"/>
<path d="M11 18.8571H21M11 14.2857H13.5M11 23.4286H16M13.5 6.28571H8.5C7.83696 6.28571 7.20107 6.52653 6.73223 6.95518C6.26339 7.38384 6 7.96522 6 8.57143V25.7143C6 26.3205 6.26339 26.9019 6.73223 27.3305C7.20107 27.7592 7.83696 28 8.5 28H23.5C24.163 28 24.7989 27.7592 25.2678 27.3305C25.7366 26.9019 26 26.3205 26 25.7143V8.57143C26 7.96522 25.7366 7.38384 25.2678 6.95518C24.7989 6.52653 24.163 6.28571 23.5 6.28571H19.125M13.5 6.28571V4M13.5 6.28571V8.57143" stroke="#2029F4" stroke-width="1.5" stroke-linecap="round" stroke-linejoin="round"/>
</svg>
