<svg width="47" height="48" viewBox="0 0 47 48" fill="none" xmlns="http://www.w3.org/2000/svg">
<path d="M6.71262 16.7122C6.53633 17.3997 6.27898 18.1271 5.90823 18.7346C5.37063 19.6155 4.92862 20.4801 4.75909 21.5127C4.67363 22.0332 4.64093 22.5641 4.60396 23.0899C4.59085 23.2763 4.56707 23.4926 4.61545 23.6759C4.63121 23.7356 4.64892 23.8567 4.70738 23.8368C4.88352 23.7768 4.94283 22.8876 4.9487 22.8457C5.05144 22.1118 5.10488 21.3734 5.31642 20.6594C5.43741 20.2511 5.62271 19.9119 5.8163 19.5448C5.93658 19.3166 6.10517 18.5888 6.1438 18.8438C6.19301 19.1686 6.04745 19.4935 5.91972 19.7804C5.74799 20.166 5.52841 20.5092 5.29919 20.8634C5.21175 20.9985 5.26628 21.2642 5.25322 21.4121C5.21612 21.8326 5.08356 22.203 5.00616 22.6072C4.97217 22.7847 4.95444 22.9694 4.95444 23.1502C4.95444 23.9699 4.92928 24.7931 4.96019 25.6122C4.97588 26.028 5.06379 25.1416 5.06936 25.0491C5.09082 24.6929 5.08053 24.3208 5.14405 23.969C5.21624 23.5691 5.29515 23.1593 5.44283 22.7796C5.50058 22.6311 5.56688 22.5048 5.57785 22.3458C5.59744 22.0617 5.62669 21.7803 5.62669 21.4954C5.62669 21.2377 5.6457 20.9735 5.62669 20.7169C5.59501 20.2893 5.23777 21.5069 5.213 21.935C5.18142 22.4808 5.25897 23.0399 5.25897 23.5869C5.25897 24.2328 5.1752 24.8744 5.16416 25.5203C5.15619 25.9865 5.14154 26.4491 5.28195 26.8992C5.46761 27.4944 5.73346 28.0673 5.93696 28.6574" stroke="white" stroke-width="2"/>
<path d="M5.46143 25.9223C5.75223 26.0788 5.93515 26.3612 6.09837 26.6332C6.12434 26.6765 6.11469 26.7677 6.12079 26.8126C6.14299 26.9761 6.17182 27.1473 6.27106 27.2836C6.3159 27.3452 6.47902 27.4916 6.40674 27.4675C6.3851 27.4603 6.38056 27.4301 6.3675 27.4114C6.30072 27.3158 6.21937 27.2288 6.15892 27.1289C6.0359 26.9255 6.03433 26.694 6.0266 26.4639C6.0143 26.0979 5.96948 25.7335 5.94362 25.3683C5.94124 25.3347 5.93983 24.6712 5.85951 25.061C5.72845 25.6971 5.63919 26.3604 5.59375 27.0077C5.55502 27.5595 5.55591 28.165 5.69131 28.7066C5.76939 29.0189 5.84975 29.2007 5.97838 29.5073C6.04476 29.6655 6.11424 29.8224 6.18359 29.9794C6.23647 30.0991 6.28798 30.2194 6.34507 30.3371C6.37252 30.3937 6.39153 30.4585 6.43702 30.502C6.50519 30.5671 6.41846 30.3122 6.38544 30.2239C6.27638 29.9322 6.11582 29.6633 5.99856 29.375C5.95261 29.262 5.88531 29.1108 5.88531 28.9814C5.88531 28.7881 5.83371 28.6146 5.80457 28.4252C5.77827 28.2542 5.82296 28.7722 5.86064 28.941C5.9012 29.1228 6.02144 29.2622 6.14771 29.3918C6.16665 29.4112 6.19807 29.4743 6.18247 29.4041C6.15119 29.2634 6.11386 29.1223 6.06697 28.9859C6.02384 28.8604 5.99751 28.727 5.98174 28.5956C5.96902 28.4896 5.94722 28.414 5.96941 28.5934C5.9919 28.7752 6.0168 28.9569 6.08715 29.1271C6.15801 29.2986 6.22215 29.4721 6.28227 29.6452C6.39254 29.9628 6.47298 30.2791 6.6142 30.5894C6.81996 31.0416 7.10254 31.4804 7.17713 31.9777" stroke="white" stroke-width="2"/>
<rect x="0.71654" y="13.147" width="35" height="36.1571" rx="17.5" transform="rotate(-20 0.71654 13.147)" stroke="#2029F4"/>
<rect x="7" y="8" width="32" height="32" rx="16" fill="#E8FAFF"/>
<path d="M23.0652 22.0037V31.0037M23.0652 22.0037L26.0652 25.0037M23.0652 22.0037L20.0652 25.0037M28.5652 27.0037C30.0842 27.0037 31.0652 25.7727 31.0652 24.2537C31.0651 23.6523 30.868 23.0676 30.5039 22.5889C30.1397 22.1103 29.6288 21.7642 29.0492 21.6037C28.96 20.4822 28.4952 19.4235 27.7299 18.5988C26.9646 17.7741 25.9435 17.2317 24.8317 17.0592C23.7199 16.8866 22.5825 17.0941 21.6032 17.648C20.6239 18.2019 19.8601 19.07 19.4352 20.1117C18.5406 19.8637 17.5842 19.9813 16.7763 20.4385C15.9684 20.8957 15.3752 21.6552 15.1272 22.5497C14.8792 23.4443 14.9968 24.4007 15.454 25.2087C15.9112 26.0166 16.6706 26.6097 17.5652 26.8577" stroke="#2029F4" stroke-width="2" stroke-linecap="round" stroke-linejoin="round"/>
<path d="M25.1349 6.2256C24.7746 6.20663 20.4632 5.93356 20.4632 5.6071C20.4632 5.54277 20.5914 5.61816 20.6553 5.62511C20.8676 5.64819 21.0797 5.67302 21.2918 5.69717C22.0087 5.77877 22.7279 5.85406 23.4416 5.96138C23.7583 6.00902 23.9956 6.14401 23.6818 6.44177C22.9928 7.09539 22.3698 6.97859 21.5621 6.76603C20.8194 6.57061 20.1681 6.44125 19.3943 6.39373C18.5945 6.34462 17.1285 6.40127 16.8062 7.40855C16.7616 7.54799 18.196 7.52264 18.3254 7.52264C18.6023 7.52264 18.7576 7.55623 18.8659 7.25843C19.0649 6.71108 18.1945 6.8792 17.8931 6.94618C17.2345 7.09253 16.6671 7.19383 16.0796 7.52264C15.4348 7.88361 14.743 8.37192 14.002 8.49543" stroke="white"/>
<path d="M19.744 5.95607C19.5141 6.36997 19.2184 6.74581 19.0402 7.1914C18.992 7.31182 19.0778 7.31701 19.178 7.29194C19.4602 7.2214 19.4731 6.87824 19.5142 6.63981C19.5505 6.42905 19.5129 5.90295 19.8129 5.86414C20.4929 5.77622 21.0651 5.62224 21.7033 5.34129C22.2751 5.08953 22.8243 4.57439 23.3695 5.08273C23.5274 5.22997 23.7097 5.52369 23.947 5.53951C24.1128 5.55057 24.2859 5.588 24.4382 5.5941C24.6873 5.60406 24.6003 5.64174 24.2917 5.65443C21.4041 5.77309 18.5458 6.59508 15.7622 7.30631C14.6283 7.59604 14.3935 7.6742 13.4123 7.9211C13.3912 7.9264 12.2996 8.1966 12.3062 8.11932C12.314 8.02888 12.4286 7.98248 12.5044 7.93259C12.7184 7.79185 12.9444 7.66994 13.1709 7.5505C13.7995 7.21908 14.3193 6.97952 14.9808 6.726C15.1447 6.6632 15.7536 6.42256 16.0294 6.44158C16.3827 6.46595 15.7459 7.11096 15.4922 7.35802C15.075 7.76439 14.4895 8.25571 14.0385 8.62781C13.8919 8.74879 13.7417 8.8653 13.5932 8.98405C13.5502 9.01852 13.4759 9.0336 13.464 9.08747C13.4351 9.21734 13.6928 8.95159 13.8087 8.88637C13.9645 8.79873 14.2148 8.67784 13.8202 8.75135C13.7092 8.77203 12.6165 8.97913 12.6165 9.09321C12.6165 9.21226 12.858 9.10424 12.9698 9.14493C13.3848 9.29583 12.4144 9.8485 12.0505 10.0987C11.366 10.5695 10.6776 11.0348 9.98209 11.4892C9.9697 11.4973 9.23203 12.0191 9.66033 11.5983C9.73475 11.5252 10.66 10.6959 10.729 10.6331C10.8077 10.5614 10.9281 10.5156 10.9617 10.4147C10.9904 10.3286 10.8165 10.5238 10.7463 10.5813C10.5407 10.7498 10.3372 10.921 10.1343 11.0927C9.93667 11.26 9.22546 11.8581 8.98521 12.104C8.96156 12.1282 8.91089 12.2089 8.94212 12.1959C9.06568 12.1443 9.16983 12.0549 9.28112 11.9804C9.5363 11.8097 9.75622 11.5606 10.051 11.4748C10.0814 11.466 10.0733 11.5426 10.0568 11.5696C9.96731 11.7165 9.34813 12.4618 9.29835 12.5234C9.12597 12.7367 8.79823 13.1305 8.6376 13.391C8.63284 13.3987 8.52172 13.5582 8.59163 13.6093C8.6312 13.6382 8.7618 13.5774 8.64047 13.6668C8.23347 13.9667 7.84088 14.2801 7.62061 14.747C7.25427 15.5235 6.80901 16.2939 6.60938 17.1257" stroke="white" stroke-width="2"/>
<path d="M6.81348 31.5134C7.05824 31.7166 7.34914 31.9402 7.47509 32.2401C7.52198 32.3517 7.5496 32.466 7.58162 32.5821C7.64743 32.8207 7.86751 33.0553 8.00662 33.2448C8.31941 33.671 8.69697 34.0664 8.95642 34.5277C9.13687 34.8485 9.16325 35.2284 9.39937 35.519C10.1747 36.4732 11.0437 37.356 11.9718 38.1609C12.3308 38.4723 12.7215 38.7373 13.1178 38.9975C13.6808 39.3672 14.254 39.7235 14.8358 40.0628C15.0317 40.177 15.2249 40.2856 15.4324 40.3745" stroke="white" stroke-width="2"/>
<path d="M15.4197 40.6732C16.3451 41.2747 17.369 41.5928 18.3192 42.123C18.6793 42.3238 19.0194 42.4607 19.4272 42.5323C19.6534 42.5721 19.9652 42.6703 20.1972 42.6413C20.4317 42.612 19.7855 42.4076 19.57 42.3107C18.8096 41.9693 18.0712 41.4877 17.2338 41.383C16.393 41.2779 15.5893 40.9507 14.8338 40.5755C13.2292 39.7788 11.6287 39.9378 9.91357 39.7492C9.72743 39.7288 9.23163 39.6718 9.04971 39.5164C8.74971 39.26 9.42305 39.0935 9.49666 39.0807C10.082 38.9789 10.7959 39.0114 11.3558 39.2197C12.602 39.6831 13.9305 40.3707 15.277 40.4553C15.4624 40.467 15.5105 40.402 15.3859 40.3051C15.2214 40.1772 15.3144 40.0836 15.4873 39.9971" stroke="white" stroke-width="2"/>
<path d="M15.4468 39.8242C15.7306 40.0598 16.0466 40.2608 16.2809 40.5472" stroke="white" stroke-width="2"/>
<path d="M19.5342 41.3533C19.8398 41.5136 20.1264 41.8273 20.4796 41.8476C20.5551 41.8519 20.7569 41.8159 20.8178 41.8708C20.8729 41.9203 20.9425 41.9253 21.0109 41.9434C21.1529 41.9807 21.1448 42.1523 21.1531 42.2739C21.1665 42.4722 21.1747 42.6699 21.1747 42.8687C21.1747 42.9144 21.1747 43.3207 21.1747 43.1359C21.1747 42.7919 21.1747 42.448 21.1747 42.104C21.1747 42.0651 21.1753 42.0396 21.1886 42.0005C21.2487 41.8236 21.3867 41.3094 21.4249 41.4923C21.5165 41.9297 21.3806 42.3955 21.3322 42.8269C21.3099 43.0262 21.3137 43.2263 21.3137 43.4263C21.3137 43.4952 21.3137 43.242 21.3137 43.1884" stroke="white" stroke-width="2"/>
<path d="M21.814 42.4751C22.6415 42.4649 23.4587 42.4205 24.2597 42.2C24.7582 42.0628 25.2329 41.8573 25.7245 41.7032C26.2001 41.5542 26.6962 41.4375 27.1958 41.4047C27.6728 41.3734 28.1148 41.2054 28.5903 41.1488C29.3434 41.0593 30.1369 40.8466 30.7609 40.394C31.4254 39.9121 32.212 39.5022 32.9443 39.136" stroke="white" stroke-width="2"/>
<path d="M40.7784 25.6584C40.464 26.5416 40.2877 27.4344 40.0761 28.3372C40.0057 28.6378 39.4549 29.7022 40.229 29.3453C40.4927 29.2237 40.7648 29.04 40.8463 28.745C40.9075 28.5239 40.8395 28.2826 40.9086 28.0654C40.9492 27.9378 41.1677 27.807 41.2768 27.7595C41.4007 27.7056 41.9559 27.6463 41.5769 27.6463C41.2514 27.6463 40.7688 27.7246 40.6764 28.0993C40.4726 28.9269 40.2607 29.7039 39.8751 30.4751C39.5979 31.0296 39.3418 31.6084 39.0567 32.1628C38.6038 33.0434 37.8507 33.7221 37.2614 34.5046C36.4681 35.5582 35.8288 36.807 34.8036 37.6704C34.2895 38.1033 33.8395 38.6356 33.3141 39.0523C33.0486 39.2628 32.7569 39.4511 32.4872 39.6582C32.3432 39.7689 32.1687 39.8492 32.0568 39.9924C32.0368 40.0181 32.1189 39.9713 32.1474 39.9556C32.5438 39.7373 32.9583 39.4701 33.3198 39.2137C34.3334 38.4946 35.1959 37.6574 36.0495 36.7614C36.6938 36.0852 37.2595 35.3439 37.8957 34.6632C37.9027 34.6557 38.2698 34.2825 38.3375 34.3913C38.4157 34.517 38.3239 34.6885 38.2922 34.8331C38.1967 35.2687 38.0647 35.6945 37.958 36.1271C37.8213 36.6818 38.5984 35.1672 38.7906 34.6292" stroke="white" stroke-width="2"/>
<path d="M6.63164 17.3883C6.47991 18.1707 6.19288 18.933 6.05712 19.7136C5.90981 20.5606 6.52806 18.0589 6.71584 17.2199C6.72666 17.1715 6.73896 17.1232 6.74308 17.0738C6.75088 16.9801 6.68319 17.2523 6.66136 17.3437C6.51236 17.9676 6.40739 18.6009 6.28743 19.2307C6.24247 19.4667 6.21809 19.7553 6.07693 19.9587C5.72349 20.4681 5.513 21.2413 5.4727 21.8457C5.42874 22.5053 5.56614 23.1999 5.44299 23.8516C5.23019 24.9776 5.1629 26.3732 5.67081 27.4373C6.11722 28.3727 6.40877 29.4055 6.40877 30.4486" stroke="white" stroke-width="3" stroke-linecap="round"/>
</svg>
