<svg xmlns="http://www.w3.org/2000/svg" xmlns:xlink="http://www.w3.org/1999/xlink" width="500" zoomAndPan="magnify" viewBox="0 0 375 374.999991" height="500" preserveAspectRatio="xMidYMid meet" version="1.0"><defs><g/><clipPath id="aaa3fac6bd"><path d="M 89.226562 117.132812 L 167.226562 117.132812 L 167.226562 216.078125 L 89.226562 216.078125 Z M 89.226562 117.132812 " clip-rule="nonzero"/></clipPath></defs><rect x="-37.5" width="450" fill="#ffffff" y="-37.499999" height="449.999989" fill-opacity="1"/><g clip-path="url(#aaa3fac6bd)"><path fill="#38b6ff" d="M 116.265625 188.878906 C 117.570312 189.828125 118.421875 191.332031 118.421875 193.015625 C 118.421875 195.804688 116.167969 198.0625 113.433594 198.0625 C 110.644531 198.0625 108.386719 195.804688 108.386719 193.015625 C 108.386719 191.3125 109.238281 189.808594 110.582031 188.878906 L 110.582031 160.390625 C 110.582031 158.847656 111.832031 157.539062 113.433594 157.539062 C 114.980469 157.539062 116.285156 158.847656 116.285156 160.390625 L 116.285156 188.878906 Z M 145.742188 188.679688 C 147.246094 189.570312 148.234375 191.175781 148.234375 193.035156 C 148.234375 195.828125 145.980469 198.082031 143.246094 198.082031 C 140.457031 198.082031 138.199219 195.828125 138.199219 193.035156 C 138.199219 191.492188 138.890625 190.085938 140.039062 189.136719 L 140.039062 160.390625 C 140.039062 158.847656 141.289062 157.539062 142.890625 157.539062 C 144.433594 157.539062 145.742188 158.847656 145.742188 160.390625 Z M 128.300781 117.078125 C 139.089844 117.078125 148.890625 121.433594 155.9375 128.519531 C 162.984375 135.566406 167.378906 145.367188 167.378906 156.15625 C 167.378906 166.90625 162.984375 176.683594 155.9375 183.730469 C 154.234375 185.433594 152.394531 186.976562 150.394531 188.382812 L 150.394531 182.542969 C 151.144531 181.890625 151.898438 181.195312 152.652344 180.445312 C 158.847656 174.25 162.746094 165.65625 162.746094 156.15625 C 162.746094 146.613281 158.847656 138.023438 152.652344 131.824219 C 146.414062 125.589844 137.804688 121.730469 128.320312 121.730469 C 118.839844 121.730469 110.226562 125.570312 104.03125 131.824219 C 97.796875 138.023438 93.933594 146.613281 93.933594 156.15625 C 93.933594 165.65625 97.777344 174.25 104.03125 180.445312 C 104.625 181.097656 105.277344 181.691406 105.933594 182.246094 L 105.933594 188.144531 C 104.089844 186.839844 102.328125 185.394531 100.6875 183.75 C 93.636719 176.683594 89.285156 166.882812 89.285156 156.15625 C 89.285156 145.367188 93.636719 135.566406 100.667969 128.519531 C 107.773438 121.433594 117.511719 117.078125 128.300781 117.078125 Z M 134.199219 198.714844 L 134.199219 161.105469 C 134.199219 157.796875 131.449219 155.066406 128.164062 155.066406 C 124.875 155.066406 122.125 157.816406 122.125 161.105469 L 122.125 198.738281 C 119.867188 200.476562 118.484375 203.230469 118.484375 206.339844 C 118.484375 211.742188 122.835938 216.078125 128.183594 216.078125 C 133.527344 216.078125 137.882812 211.722656 137.882812 206.339844 C 137.84375 203.210938 136.398438 200.476562 134.199219 198.714844 Z M 118.820312 153.996094 C 121.117188 151.402344 124.460938 149.742188 128.164062 149.742188 C 131.863281 149.742188 135.210938 151.382812 137.445312 153.996094 C 138.992188 152.890625 140.851562 152.253906 142.890625 152.253906 C 142.949219 152.253906 143.050781 152.253906 143.089844 152.253906 L 128.164062 127.3125 L 113.175781 152.234375 C 113.277344 152.234375 113.335938 152.234375 113.433594 152.234375 C 115.414062 152.253906 117.316406 152.910156 118.820312 153.996094 Z M 118.820312 153.996094 " fill-opacity="1" fill-rule="nonzero"/></g><g fill="#000000" fill-opacity="1"><g transform="translate(167.437494, 203.078864)"><g><path d="M 8.765625 0 L 2.90625 0 L 2.90625 -28.4375 L 8.765625 -28.4375 Z M 8.765625 0 "/></g></g></g><g fill="#000000" fill-opacity="1"><g transform="translate(179.096516, 203.078864)"><g><path d="M 7.359375 -21.140625 L 7.546875 -18.6875 C 9.054688 -20.582031 11.078125 -21.53125 13.609375 -21.53125 C 15.847656 -21.53125 17.515625 -20.867188 18.609375 -19.546875 C 19.703125 -18.234375 20.265625 -16.269531 20.296875 -13.65625 L 20.296875 0 L 14.65625 0 L 14.65625 -13.515625 C 14.65625 -14.710938 14.394531 -15.582031 13.875 -16.125 C 13.351562 -16.664062 12.484375 -16.9375 11.265625 -16.9375 C 9.679688 -16.9375 8.492188 -16.257812 7.703125 -14.90625 L 7.703125 0 L 2.046875 0 L 2.046875 -21.140625 Z M 7.359375 -21.140625 "/></g></g></g><g fill="#000000" fill-opacity="1"><g transform="translate(201.496676, 203.078864)"><g><path d="M 8.921875 -26.328125 L 8.921875 -21.140625 L 12.546875 -21.140625 L 12.546875 -17 L 8.921875 -17 L 8.921875 -6.453125 C 8.921875 -5.671875 9.070312 -5.109375 9.375 -4.765625 C 9.675781 -4.429688 10.25 -4.265625 11.09375 -4.265625 C 11.71875 -4.265625 12.269531 -4.304688 12.75 -4.390625 L 12.75 -0.125 C 11.644531 0.21875 10.507812 0.390625 9.34375 0.390625 C 5.382812 0.390625 3.363281 -1.609375 3.28125 -5.609375 L 3.28125 -17 L 0.203125 -17 L 0.203125 -21.140625 L 3.28125 -21.140625 L 3.28125 -26.328125 Z M 8.921875 -26.328125 "/></g></g></g><g fill="#000000" fill-opacity="1"><g transform="translate(215.01098, 203.078864)"><g><path d="M 11.890625 0.390625 C 8.796875 0.390625 6.273438 -0.554688 4.328125 -2.453125 C 2.378906 -4.359375 1.40625 -6.894531 1.40625 -10.0625 L 1.40625 -10.609375 C 1.40625 -12.734375 1.816406 -14.628906 2.640625 -16.296875 C 3.460938 -17.972656 4.625 -19.265625 6.125 -20.171875 C 7.625 -21.078125 9.335938 -21.53125 11.265625 -21.53125 C 14.160156 -21.53125 16.4375 -20.617188 18.09375 -18.796875 C 19.757812 -16.972656 20.59375 -14.382812 20.59375 -11.03125 L 20.59375 -8.734375 L 7.125 -8.734375 C 7.3125 -7.347656 7.863281 -6.238281 8.78125 -5.40625 C 9.695312 -4.570312 10.859375 -4.15625 12.265625 -4.15625 C 14.441406 -4.15625 16.140625 -4.945312 17.359375 -6.53125 L 20.140625 -3.421875 C 19.296875 -2.222656 18.148438 -1.285156 16.703125 -0.609375 C 15.253906 0.0546875 13.648438 0.390625 11.890625 0.390625 Z M 11.25 -16.953125 C 10.132812 -16.953125 9.226562 -16.570312 8.53125 -15.8125 C 7.832031 -15.0625 7.382812 -13.984375 7.1875 -12.578125 L 15.046875 -12.578125 L 15.046875 -13.03125 C 15.015625 -14.28125 14.671875 -15.242188 14.015625 -15.921875 C 13.367188 -16.609375 12.445312 -16.953125 11.25 -16.953125 Z M 11.25 -16.953125 "/></g></g></g><g fill="#000000" fill-opacity="1"><g transform="translate(236.629966, 203.078864)"><g><path d="M 8.125 0 L 2.46875 0 L 2.46875 -30 L 8.125 -30 Z M 8.125 0 "/></g></g></g><g fill="#000000" fill-opacity="1"><g transform="translate(247.234404, 203.078864)"><g><path d="M 8.125 0 L 2.46875 0 L 2.46875 -30 L 8.125 -30 Z M 8.125 0 "/></g></g></g><g fill="#000000" fill-opacity="1"><g transform="translate(257.838842, 203.078864)"><g><path d="M 8.125 0 L 2.46875 0 L 2.46875 -21.140625 L 8.125 -21.140625 Z M 2.125 -26.609375 C 2.125 -27.453125 2.40625 -28.144531 2.96875 -28.6875 C 3.539062 -29.238281 4.316406 -29.515625 5.296875 -29.515625 C 6.253906 -29.515625 7.019531 -29.238281 7.59375 -28.6875 C 8.164062 -28.144531 8.453125 -27.453125 8.453125 -26.609375 C 8.453125 -25.742188 8.160156 -25.035156 7.578125 -24.484375 C 7.003906 -23.941406 6.242188 -23.671875 5.296875 -23.671875 C 4.347656 -23.671875 3.582031 -23.941406 3 -24.484375 C 2.414062 -25.035156 2.125 -25.742188 2.125 -26.609375 Z M 2.125 -26.609375 "/></g></g></g><g fill="#000000" fill-opacity="1"><g transform="translate(268.44328, 203.078864)"><g><path d="M 25.671875 0 L 19.8125 0 L 8.40625 -18.71875 L 8.40625 0 L 2.546875 0 L 2.546875 -28.4375 L 8.40625 -28.4375 L 19.828125 -9.6875 L 19.828125 -28.4375 L 25.671875 -28.4375 Z M 25.671875 0 "/></g></g></g><g fill="#000000" fill-opacity="1"><g transform="translate(296.682708, 203.078864)"><g><path d="M 1.296875 -10.765625 C 1.296875 -12.859375 1.695312 -14.722656 2.5 -16.359375 C 3.3125 -18.003906 4.472656 -19.273438 5.984375 -20.171875 C 7.503906 -21.078125 9.265625 -21.53125 11.265625 -21.53125 C 14.117188 -21.53125 16.445312 -20.65625 18.25 -18.90625 C 20.050781 -17.164062 21.054688 -14.796875 21.265625 -11.796875 L 21.3125 -10.359375 C 21.3125 -7.109375 20.40625 -4.503906 18.59375 -2.546875 C 16.78125 -0.585938 14.347656 0.390625 11.296875 0.390625 C 8.253906 0.390625 5.828125 -0.582031 4.015625 -2.53125 C 2.203125 -4.488281 1.296875 -7.148438 1.296875 -10.515625 Z M 6.9375 -10.359375 C 6.9375 -8.347656 7.3125 -6.8125 8.0625 -5.75 C 8.820312 -4.6875 9.90625 -4.15625 11.3125 -4.15625 C 12.675781 -4.15625 13.742188 -4.679688 14.515625 -5.734375 C 15.285156 -6.785156 15.671875 -8.460938 15.671875 -10.765625 C 15.671875 -12.734375 15.285156 -14.253906 14.515625 -15.328125 C 13.742188 -16.410156 12.660156 -16.953125 11.265625 -16.953125 C 9.890625 -16.953125 8.820312 -16.414062 8.0625 -15.34375 C 7.3125 -14.269531 6.9375 -12.609375 6.9375 -10.359375 Z M 6.9375 -10.359375 "/></g></g></g><g fill="#000000" fill-opacity="1"><g transform="translate(319.297686, 203.078864)"><g><path d="M 8.921875 -26.328125 L 8.921875 -21.140625 L 12.546875 -21.140625 L 12.546875 -17 L 8.921875 -17 L 8.921875 -6.453125 C 8.921875 -5.671875 9.070312 -5.109375 9.375 -4.765625 C 9.675781 -4.429688 10.25 -4.265625 11.09375 -4.265625 C 11.71875 -4.265625 12.269531 -4.304688 12.75 -4.390625 L 12.75 -0.125 C 11.644531 0.21875 10.507812 0.390625 9.34375 0.390625 C 5.382812 0.390625 3.363281 -1.609375 3.28125 -5.609375 L 3.28125 -17 L 0.203125 -17 L 0.203125 -21.140625 L 3.28125 -21.140625 L 3.28125 -26.328125 Z M 8.921875 -26.328125 "/></g></g></g><g fill="#000000" fill-opacity="1"><g transform="translate(332.81199, 203.078864)"><g><path d="M 11.890625 0.390625 C 8.796875 0.390625 6.273438 -0.554688 4.328125 -2.453125 C 2.378906 -4.359375 1.40625 -6.894531 1.40625 -10.0625 L 1.40625 -10.609375 C 1.40625 -12.734375 1.816406 -14.628906 2.640625 -16.296875 C 3.460938 -17.972656 4.625 -19.265625 6.125 -20.171875 C 7.625 -21.078125 9.335938 -21.53125 11.265625 -21.53125 C 14.160156 -21.53125 16.4375 -20.617188 18.09375 -18.796875 C 19.757812 -16.972656 20.59375 -14.382812 20.59375 -11.03125 L 20.59375 -8.734375 L 7.125 -8.734375 C 7.3125 -7.347656 7.863281 -6.238281 8.78125 -5.40625 C 9.695312 -4.570312 10.859375 -4.15625 12.265625 -4.15625 C 14.441406 -4.15625 16.140625 -4.945312 17.359375 -6.53125 L 20.140625 -3.421875 C 19.296875 -2.222656 18.148438 -1.285156 16.703125 -0.609375 C 15.253906 0.0546875 13.648438 0.390625 11.890625 0.390625 Z M 11.25 -16.953125 C 10.132812 -16.953125 9.226562 -16.570312 8.53125 -15.8125 C 7.832031 -15.0625 7.382812 -13.984375 7.1875 -12.578125 L 15.046875 -12.578125 L 15.046875 -13.03125 C 15.015625 -14.28125 14.671875 -15.242188 14.015625 -15.921875 C 13.367188 -16.609375 12.445312 -16.953125 11.25 -16.953125 Z M 11.25 -16.953125 "/></g></g></g><g fill="#000000" fill-opacity="1"><g transform="translate(354.430976, 203.078864)"><g><path d="M 13.609375 -5.84375 C 13.609375 -6.53125 13.265625 -7.070312 12.578125 -7.46875 C 11.898438 -7.863281 10.804688 -8.21875 9.296875 -8.53125 C 4.273438 -9.59375 1.765625 -11.726562 1.765625 -14.9375 C 1.765625 -16.8125 2.539062 -18.378906 4.09375 -19.640625 C 5.644531 -20.898438 7.679688 -21.53125 10.203125 -21.53125 C 12.878906 -21.53125 15.019531 -20.894531 16.625 -19.625 C 18.238281 -18.363281 19.046875 -16.722656 19.046875 -14.703125 L 13.40625 -14.703125 C 13.40625 -15.515625 13.144531 -16.179688 12.625 -16.703125 C 12.101562 -17.234375 11.285156 -17.5 10.171875 -17.5 C 9.222656 -17.5 8.488281 -17.285156 7.96875 -16.859375 C 7.445312 -16.429688 7.1875 -15.882812 7.1875 -15.21875 C 7.1875 -14.59375 7.484375 -14.085938 8.078125 -13.703125 C 8.671875 -13.316406 9.671875 -12.984375 11.078125 -12.703125 C 12.484375 -12.421875 13.664062 -12.109375 14.625 -11.765625 C 17.613281 -10.671875 19.109375 -8.773438 19.109375 -6.078125 C 19.109375 -4.148438 18.28125 -2.585938 16.625 -1.390625 C 14.96875 -0.203125 12.832031 0.390625 10.21875 0.390625 C 8.445312 0.390625 6.875 0.078125 5.5 -0.546875 C 4.125 -1.179688 3.046875 -2.050781 2.265625 -3.15625 C 1.484375 -4.257812 1.09375 -5.445312 1.09375 -6.71875 L 6.453125 -6.71875 C 6.503906 -5.71875 6.875 -4.945312 7.5625 -4.40625 C 8.25 -3.875 9.171875 -3.609375 10.328125 -3.609375 C 11.410156 -3.609375 12.226562 -3.8125 12.78125 -4.21875 C 13.332031 -4.632812 13.609375 -5.175781 13.609375 -5.84375 Z M 13.609375 -5.84375 "/></g></g></g></svg>