<svg width="120" height="111" viewBox="0 0 120 111" fill="none" xmlns="http://www.w3.org/2000/svg">
<ellipse cx="60" cy="55.5" rx="60" ry="55.5" fill="#FFEAEA"/>
<path d="M48 65.5V63H63.75V65.5H48ZM48 55.5V53H72.75V55.5H48ZM48 45.5V43H72.75V45.5H48ZM66.5175 78V72.475L78.5168 59.2075C78.7403 58.9608 78.9697 58.7942 79.2052 58.7075C79.4407 58.6208 79.677 58.5775 79.914 58.5775C80.172 58.5775 80.4255 58.6308 80.6745 58.7375C80.922 58.8458 81.1477 59.0067 81.3517 59.22L83.433 61.5825C83.6175 61.8292 83.7585 62.085 83.856 62.35C83.952 62.6167 84 62.8833 84 63.15C84 63.4167 83.9535 63.685 83.8605 63.955C83.769 64.225 83.6265 64.4833 83.433 64.73L71.49 78H66.5175ZM68.5087 75.7875H70.6462L78.4493 67.105L77.3918 65.9175L76.368 64.6975L68.5087 73.4125V75.7875ZM77.3918 65.9175L76.368 64.6975L78.4493 67.105L77.3918 65.9175Z" fill="#FF8E8E"/>
</svg>
