<svg width="15" height="13" viewBox="0 0 15 17" fill="none" xmlns="http://www.w3.org/2000/svg">
<path d="M2.5 0C1.83696 0 1.20107 0.223883 0.732233 0.622398C0.263392 1.02091 0 1.56141 0 2.125V14.875C0 15.4386 0.263392 15.9791 0.732233 16.3776C1.20107 16.7761 1.83696 17 2.5 17H12.5C13.163 17 13.7989 16.7761 14.2678 16.3776C14.7366 15.9791 15 15.4386 15 14.875V5.75238C14.9996 5.32983 14.8017 4.92472 14.45 4.62613L9.5575 0.466437C9.206 0.167855 8.72943 9.01864e-05 8.2325 0H2.5ZM1.25 2.125C1.25 1.84321 1.3817 1.57296 1.61612 1.3737C1.85054 1.17444 2.16848 1.0625 2.5 1.0625H7.5V4.78125C7.5 5.20394 7.69754 5.60932 8.04917 5.9082C8.40081 6.20709 8.87772 6.375 9.375 6.375H13.75V14.875C13.75 15.1568 13.6183 15.427 13.3839 15.6263C13.1495 15.8256 12.8315 15.9375 12.5 15.9375H2.5C2.16848 15.9375 1.85054 15.8256 1.61612 15.6263C1.3817 15.427 1.25 15.1568 1.25 14.875V2.125ZM13.4913 5.3125H9.375C9.20924 5.3125 9.05027 5.25653 8.93306 5.1569C8.81585 5.05727 8.75 4.92215 8.75 4.78125V1.28244L13.4913 5.3125Z" fill="#2029F4"/>
</svg>
