<svg width="120" height="111" viewBox="0 0 120 111" fill="none" xmlns="http://www.w3.org/2000/svg">
<ellipse cx="60" cy="55.5" rx="60" ry="55.5" fill="#FFF7D9"/>
<path d="M77 49.7932C77 49.5577 76.9539 49.3245 76.8642 49.107C76.7746 48.8894 76.6432 48.6917 76.4775 48.5252C76.3119 48.3587 76.1152 48.2266 75.8988 48.1365C75.6824 48.0464 75.4504 48 75.2162 48H45.7838C45.5496 48 45.3176 48.0464 45.1012 48.1365C44.8848 48.2266 44.6881 48.3587 44.5225 48.5252C44.3568 48.6917 44.2254 48.8894 44.1358 49.107C44.0461 49.3245 44 49.5577 44 49.7932V72.2068C44 72.6824 44.1879 73.1385 44.5225 73.4748C44.857 73.8111 45.3107 74 45.7838 74H75.2162C75.6893 74 76.143 73.8111 76.4775 73.4748C76.8121 73.1385 77 72.6824 77 72.2068V49.7932Z" fill="#FBBC05" stroke="#FFF7D9" stroke-linecap="round" stroke-linejoin="round"/>
<path d="M74.5597 47.5408L73.9777 45.3648C73.8512 44.893 73.5424 44.4908 73.1194 44.2466C72.6963 44.0025 72.1936 43.9363 71.7217 44.0628L58.7417 47.5408M77.5377 70.1548L78.6337 69.8608C78.8674 69.7983 79.0865 69.6903 79.2785 69.543C79.4705 69.3958 79.6315 69.2122 79.7525 69.0027C79.8735 68.7932 79.9521 68.5619 79.9837 68.3221C80.0153 68.0822 79.9993 67.8385 79.9367 67.6048L77.5367 58.6518M46.4397 74.2488L47.0217 76.4248C47.1483 76.8966 47.457 77.2988 47.8801 77.543C48.3032 77.7871 48.8059 77.8533 49.2777 77.7268L62.2577 74.2488M43.4617 51.6348L42.3657 51.9288C42.132 51.9914 41.9129 52.0993 41.721 52.2466C41.529 52.3938 41.3679 52.5774 41.2469 52.7869C41.1259 52.9964 41.0474 53.2277 41.0158 53.4675C40.9842 53.7074 41.0001 53.9511 41.0627 54.1848L43.4767 63.1928M49.4477 53.0668H71.5507M49.4477 58.2858H71.5507M49.4477 63.5038H71.5507M49.4477 68.7228H60.4997" stroke="#FBBC05" stroke-linecap="round" stroke-linejoin="round"/>
</svg>
