<svg width="20" height="20" viewBox="0 0 20 20" fill="none" xmlns="http://www.w3.org/2000/svg">
<path d="M5 0C3.98594 0 3.01341 0.402835 2.29636 1.11989C1.57931 1.83694 1.17647 2.80947 1.17647 3.82353V7.35294C1.17647 7.58696 1.26943 7.81139 1.43491 7.97686C1.60038 8.14233 1.82481 8.23529 2.05882 8.23529C2.29284 8.23529 2.51727 8.14233 2.68274 7.97686C2.84821 7.81139 2.94118 7.58696 2.94118 7.35294V3.82353C2.94118 2.68706 3.86353 1.76471 5 1.76471H8.52941C8.76343 1.76471 8.98786 1.67174 9.15333 1.50627C9.3188 1.3408 9.41177 1.11637 9.41177 0.882353C9.41177 0.648338 9.3188 0.423908 9.15333 0.258435C8.98786 0.0929618 8.76343 4.93149e-09 8.52941 0H5ZM12.6471 0C12.413 4.93149e-09 12.1886 0.0929618 12.0231 0.258435C11.8577 0.423908 11.7647 0.648338 11.7647 0.882353C11.7647 1.11637 11.8577 1.3408 12.0231 1.50627C12.1886 1.67174 12.413 1.76471 12.6471 1.76471H16.1765C17.3129 1.76471 18.2353 2.68706 18.2353 3.82353V7.35294C18.2353 7.58696 18.3283 7.81139 18.4937 7.97686C18.6592 8.14233 18.8836 8.23529 19.1176 8.23529C19.3517 8.23529 19.5761 8.14233 19.7416 7.97686C19.907 7.81139 20 7.58696 20 7.35294V3.82353C20 2.80947 19.5972 1.83694 18.8801 1.11989C18.1631 0.402835 17.1905 0 16.1765 0H12.6471ZM20 11.4706C20 11.2366 19.907 11.0121 19.7416 10.8467C19.5761 10.6812 19.3517 10.5882 19.1176 10.5882C18.8836 10.5882 18.6592 10.6812 18.4937 10.8467C18.3283 11.0121 18.2353 11.2366 18.2353 11.4706V15C18.2353 15.546 18.0184 16.0697 17.6323 16.4558C17.2462 16.8419 16.7225 17.0588 16.1765 17.0588H12.6471C12.413 17.0588 12.1886 17.1518 12.0231 17.3173C11.8577 17.4827 11.7647 17.7072 11.7647 17.9412C11.7647 18.1752 11.8577 18.3996 12.0231 18.5651C12.1886 18.7306 12.413 18.8235 12.6471 18.8235H16.1765C17.1905 18.8235 18.1631 18.4207 18.8801 17.7036C19.5972 16.9866 20 16.0141 20 15V11.4706ZM2.94118 9.41177H7.64706C8.42711 9.41177 9.17521 9.72164 9.72678 10.2732C10.2784 10.8248 10.5882 11.5729 10.5882 12.3529V17.0588C10.5882 17.8389 10.2784 18.587 9.72678 19.1385C9.17521 19.6901 8.42711 20 7.64706 20H2.94118C2.16113 20 1.41303 19.6901 0.861451 19.1385C0.309873 18.587 0 17.8389 0 17.0588V12.3529C0 11.5729 0.309873 10.8248 0.861451 10.2732C1.41303 9.72164 2.16113 9.41177 2.94118 9.41177ZM3.79294 12.4153C3.70326 12.3704 3.60358 12.3491 3.50336 12.3535C3.40315 12.358 3.30574 12.388 3.22039 12.4407C3.13503 12.4934 3.06457 12.567 3.0157 12.6546C2.96684 12.7422 2.94118 12.8409 2.94118 12.9412V16.4706C2.94118 16.5709 2.96684 16.6695 3.0157 16.7571C3.06457 16.8447 3.13503 16.9184 3.22039 16.9711C3.30574 17.0238 3.40315 17.0538 3.50336 17.0582C3.60358 17.0627 3.70326 17.0414 3.79294 16.9965L7.32235 15.2318C7.41993 15.1829 7.50198 15.1078 7.55931 15.0149C7.61665 14.922 7.64702 14.815 7.64702 14.7059C7.64702 14.5967 7.61665 14.4897 7.55931 14.3969C7.50198 14.304 7.41993 14.2289 7.32235 14.18L3.79294 12.4153Z" fill="#2029F4"/>
</svg>
